# Blender v3.0.1 OBJ File: ''
# www.blender.org
mtllib pointy.mtl
o Cube
v 1.003632 1.000000 0.400000
v 1.003632 -1.000000 0.400000
v -0.996368 1.000000 0.400000
v -0.996368 -1.000000 0.400000
v 0.003632 0.000000 -1.600000
v 0.025852 0.943759 0.287518
v 0.025852 1.918289 -0.199747
v 0.025852 0.932600 0.265200
v 0.025852 1.907130 -0.222064
v 0.201812 0.943759 0.287518
v 0.201812 1.918289 -0.199747
v 0.201812 0.932600 0.265200
v 0.201812 1.907130 -0.222064
v 0.906005 -0.095607 0.204746
v 1.647909 -0.095607 -0.166206
v 0.906005 0.214357 0.204746
v 1.647909 0.214357 -0.166206
v 0.875106 -0.095607 0.142949
v 1.617010 -0.095607 -0.228003
v 0.875106 0.214357 0.142949
v 1.617010 0.214357 -0.228003
vt 0.625000 0.500000
vt 0.875000 0.750000
vt 0.625000 0.750000
vt 0.375000 0.750000
vt 0.375000 1.000000
vt 0.125000 0.500000
vt 0.375000 0.500000
vt 0.625000 0.250000
vt 0.375000 0.000000
vt 0.625000 0.000000
vt 0.625000 0.250000
vt 0.375000 0.250000
vt 0.625000 0.500000
vt 0.375000 0.500000
vt 0.625000 0.750000
vt 0.375000 0.750000
vt 0.625000 1.000000
vt 0.375000 1.000000
vt 0.125000 0.500000
vt 0.125000 0.750000
vt 0.875000 0.500000
vt 0.875000 0.750000
vt 0.375000 0.000000
vt 0.625000 0.000000
vt 0.625000 0.250000
vt 0.375000 0.250000
vt 0.625000 0.500000
vt 0.375000 0.500000
vt 0.625000 0.750000
vt 0.375000 0.750000
vt 0.625000 1.000000
vt 0.375000 1.000000
vt 0.125000 0.500000
vt 0.125000 0.750000
vt 0.875000 0.500000
vt 0.875000 0.750000
vn -0.0000 0.8944 -0.4472
vn -0.8944 0.0000 -0.4472
vn -0.0000 -0.8944 -0.4472
vn 0.0000 0.0000 1.0000
vn 0.8944 0.0000 -0.4472
vn -1.0000 -0.0000 0.0000
vn 0.0000 -0.4472 -0.8944
vn 1.0000 0.0000 -0.0000
vn 0.0000 0.4472 0.8944
vn 0.0000 -0.8944 0.4472
vn 0.4472 0.0000 0.8944
vn 0.0000 1.0000 0.0000
vn -0.4472 0.0000 -0.8944
vn -0.0000 -1.0000 0.0000
vn -0.8944 0.0000 0.4472
usemtl Material
s off
f 1/1/1 5/2/1 3/3/1
f 4/4/2 3/3/2 5/5/2
f 5/6/3 2/7/3 4/4/3
f 2/7/4 1/1/4 3/3/4 4/4/4
f 5/8/5 1/1/5 2/7/5
f 6/9/6 7/10/6 9/11/6 8/12/6
f 8/12/7 9/11/7 13/13/7 12/14/7
f 12/14/8 13/13/8 11/15/8 10/16/8
f 10/16/9 11/15/9 7/17/9 6/18/9
f 8/19/10 12/14/10 10/16/10 6/20/10
f 13/13/1 9/21/1 7/22/1 11/15/1
f 14/23/11 15/24/11 17/25/11 16/26/11
f 16/26/12 17/25/12 21/27/12 20/28/12
f 20/28/13 21/27/13 19/29/13 18/30/13
f 18/30/14 19/29/14 15/31/14 14/32/14
f 16/33/15 20/28/15 18/30/15 14/34/15
f 21/27/5 17/35/5 15/36/5 19/29/5
